<?xml version="1.0" standalone="no"?>
<!DOCTYPE svg PUBLIC "-//W3C//DTD SVG 20010904//EN"
 "http://www.w3.org/TR/2001/REC-SVG-20010904/DTD/svg10.dtd">
<svg version="1.0" xmlns="http://www.w3.org/2000/svg"
 width="2560.000000pt" height="2560.000000pt" viewBox="0 0 2560.000000 2560.000000"
 preserveAspectRatio="xMidYMid meet">

<g transform="translate(0.000000,2560.000000) scale(0.100000,-0.100000)"
fill="#000000" stroke="none">
<path d="M777 25580 c-137 -23 -229 -163 -244 -372 l-6 -88 47 0 c44 0 46 1
46 30 0 26 3 30 29 30 25 0 31 -5 36 -30 5 -23 12 -30 30 -30 18 0 23 4 19 15
-4 8 -11 12 -17 8 -5 -3 -7 -1 -4 4 4 6 4 24 1 41 -5 26 -11 30 -46 35 -22 3
-44 9 -48 14 -13 14 16 102 47 141 16 20 49 47 73 59 24 13 48 30 52 38 10 16
37 9 55 -14 8 -11 12 -12 13 -3 0 17 40 15 40 -3 0 -8 20 -33 44 -55 47 -43
79 -101 90 -162 7 -36 5 -38 -19 -38 -21 0 -25 4 -25 32 0 17 -9 51 -21 75
-66 137 -240 134 -283 -4 -12 -37 27 -30 41 7 16 42 69 72 117 66 67 -8 113
-66 130 -163 5 -30 3 -33 -22 -34 -55 -3 -77 1 -88 16 -15 20 -94 21 -94 1 0
-19 57 -66 79 -66 10 0 30 9 44 20 l26 21 22 -31 c13 -16 28 -30 33 -30 6 0 4
4 -4 10 -28 18 -2 21 32 4 23 -12 65 -19 136 -22 l103 -5 -6 54 c-23 199 -129
369 -260 418 -58 22 -114 25 -198 11z"/>
<path d="M1784 25438 c-23 -5 -60 -25 -83 -44 -124 -106 -120 -299 7 -363 85
-43 156 -34 223 26 62 56 83 105 84 189 0 60 -4 76 -27 111 -42 63 -128 98
-204 81z m106 -90 c0 -5 11 -24 25 -40 21 -25 25 -39 23 -77 -4 -59 -21 -56
-29 5 -5 47 -34 84 -66 84 -14 0 -73 -27 -73 -34 0 -3 -3 -12 -6 -21 -4 -11 3
-7 19 9 26 26 60 33 84 18 32 -20 37 -110 6 -98 -8 4 -33 9 -55 12 -39 7 -40
6 -28 -16 9 -17 18 -21 39 -17 24 5 30 1 44 -27 16 -34 9 -56 -19 -56 -7 0
-20 -8 -30 -17 -15 -15 -18 -15 -28 -2 -6 9 -16 14 -22 12 -6 -2 -14 4 -18 14
-3 10 -13 29 -21 43 -18 30 -20 73 -3 68 7 -3 15 -18 20 -34 4 -16 15 -35 25
-41 20 -15 63 -17 63 -3 0 6 -10 10 -22 10 -29 0 -58 28 -58 55 0 12 -9 26
-20 31 -19 9 -20 10 -3 44 10 19 36 46 57 61 39 26 96 37 96 17z"/>
<path d="M1807 25264 c-14 -14 -7 -22 23 -26 24 -4 30 -1 28 11 -3 17 -39 27
-51 15z"/>
<path d="M796 25309 c-34 -27 -33 -39 3 -39 24 0 28 3 24 24 -4 17 0 25 14 29
14 4 14 5 2 6 -9 0 -28 -8 -43 -20z"/>
<path d="M861 25317 c2 -1 13 -9 24 -17 19 -14 19 -14 6 3 -7 9 -18 17 -24 17
-6 0 -8 -1 -6 -3z"/>
<path d="M2585 25074 c-128 -29 -244 -100 -304 -187 -16 -24 -49 -91 -72 -148
-40 -98 -43 -110 -43 -204 -1 -80 4 -115 23 -174 62 -187 232 -367 456 -479
146 -74 264 -102 424 -102 165 0 297 43 394 130 56 50 162 203 190 275 27 69
29 209 3 285 -96 283 -343 498 -681 592 -97 27 -296 33 -390 12z m265 -178
c71 7 187 -17 267 -56 59 -29 163 -112 163 -131 0 -5 -12 -16 -26 -26 -25 -16
-27 -16 -43 4 -33 42 -114 93 -177 113 -72 22 -176 26 -236 10 -155 -43 -234
-215 -168 -368 12 -28 27 -52 32 -52 6 0 23 9 39 21 28 20 28 21 14 49 -23 44
-29 112 -15 155 54 164 290 199 443 65 20 -17 37 -37 37 -44 0 -6 -22 -26 -48
-43 -27 -18 -97 -66 -157 -108 l-108 -74 44 -20 c55 -25 113 -26 159 -3 40 20
80 74 80 108 0 19 5 24 28 24 35 0 189 -27 204 -36 14 -9 4 -111 -16 -158 -13
-32 -13 -36 5 -52 25 -23 24 -36 -6 -64 -24 -23 -25 -23 -45 -5 -19 17 -21 17
-40 0 -19 -17 -19 -19 -3 -37 16 -18 15 -20 -15 -50 l-32 -32 -27 27 c-27 25
-30 26 -68 12 -68 -24 -203 -19 -293 11 -42 14 -88 33 -101 43 l-24 18 37 28
37 28 76 -23 c136 -40 249 -27 343 40 32 23 75 89 85 133 7 26 5 27 -29 27
-27 0 -38 -6 -47 -22 -6 -13 -27 -40 -47 -60 -73 -77 -197 -88 -317 -29 -34
17 -65 31 -68 31 -3 0 -35 -20 -70 -45 -36 -25 -69 -45 -75 -45 -18 0 -81 81
-109 140 -21 42 -28 75 -31 142 -4 77 -2 92 22 145 15 32 36 67 47 79 19 20
19 21 -1 39 -27 24 -25 39 5 53 34 16 45 15 66 -4 14 -12 22 -13 38 -4 23 12
27 25 11 35 -18 11 -10 26 23 40 30 13 34 12 57 -10 22 -21 32 -23 80 -19z"/>
<path d="M2883 24679 c-35 -10 -80 -58 -89 -95 -8 -30 4 -94 17 -94 18 0 240
153 236 164 -5 14 -66 35 -102 34 -16 0 -44 -4 -62 -9z"/>
<path d="M1419 24912 c-69 -36 -104 -95 -94 -162 13 -85 51 -125 143 -150 131
-34 277 75 258 193 -15 95 -84 147 -193 147 -47 0 -73 -6 -114 -28z m196 -76
c43 -40 55 -106 19 -106 -9 0 -14 11 -14 29 0 65 -93 94 -147 46 -15 -13 -22
-25 -15 -25 6 0 12 4 12 8 0 12 46 32 74 32 28 0 69 -42 64 -67 -4 -19 -18
-21 -81 -10 -28 4 -37 3 -34 -6 2 -7 19 -13 38 -15 33 -3 69 -26 69 -43 0 -15
-83 -50 -93 -40 -5 5 -15 7 -23 4 -18 -7 -73 57 -74 85 0 31 17 27 35 -8 16
-31 47 -45 86 -37 19 3 17 5 -8 6 -35 1 -73 31 -73 56 0 8 -9 15 -20 15 -11 0
-20 6 -20 14 0 20 67 76 90 76 10 0 22 5 25 11 10 15 62 1 90 -25z"/>
<path d="M1505 24780 c-4 -6 8 -10 30 -10 22 0 34 4 30 10 -3 6 -17 10 -30 10
-13 0 -27 -4 -30 -10z"/>
<path d="M1497 24513 c-18 -17 -4 -25 35 -19 68 11 81 25 22 26 -28 0 -54 -3
-57 -7z"/>
<path d="M1663 24461 c-3 -14 -18 -21 -56 -26 -45 -7 -48 -9 -27 -15 14 -5 18
-8 9 -9 -23 -1 -28 -27 -30 -181 -1 -85 -6 -138 -13 -142 -6 -4 -29 -8 -51 -9
-24 -1 -31 -3 -17 -6 17 -3 21 -9 17 -24 -4 -10 -5 -19 -3 -19 2 0 25 7 52 15
28 8 53 12 57 8 5 -5 10 -49 12 -98 l3 -90 2 105 2 106 43 14 42 15 3 140 c2
77 0 159 -3 182 -6 45 -33 67 -42 34z m-16 -37 c-3 -3 -12 -4 -19 -1 -8 3 -5
6 6 6 11 1 17 -2 13 -5z"/>
<path d="M1194 24444 c-10 -8 -13 -12 -6 -9 8 4 26 11 40 15 22 7 23 8 6 9
-11 1 -29 -6 -40 -15z"/>
<path d="M1167 24350 c-8 -68 7 -166 29 -192 10 -10 31 -22 48 -27 29 -9 29
-9 6 -10 -31 -1 -68 23 -80 53 -7 16 -9 17 -9 4 -1 -9 9 -29 22 -43 18 -21 38
-28 112 -40 125 -21 169 -17 65 6 l-85 18 75 -5 c70 -4 73 -4 50 10 -14 8 -47
20 -75 27 -60 14 -68 20 -107 77 -22 33 -31 59 -37 110 l-7 67 -7 -55z"/>
<path d="M308 23721 c-101 -40 -214 -147 -268 -255 -38 -75 -38 -97 1 -141 37
-42 78 -46 139 -15 l39 20 48 -30 c49 -30 141 -63 203 -74 32 -5 33 -5 9 5
-24 9 -26 14 -22 47 6 46 -4 56 -72 73 -59 15 -76 26 -57 38 7 4 62 -4 124
-19 l112 -27 1 -44 c1 -24 5 -55 9 -68 7 -21 6 -23 -13 -18 -12 3 -19 1 -15
-4 3 -5 16 -9 29 -9 16 0 29 -11 43 -33 27 -47 110 -87 177 -87 69 0 143 23
203 63 45 31 58 34 178 46 303 29 535 105 579 192 9 17 15 56 15 97 0 84 -15
107 -90 142 l-51 24 -39 -46 c-23 -26 -57 -53 -81 -62 -46 -19 -65 -13 -34 10
17 13 18 16 5 24 -11 7 -25 -1 -54 -32 -68 -70 -119 -81 -249 -52 -58 13 -78
23 -103 50 -18 19 -49 41 -70 50 -44 19 -154 21 -196 5 -37 -14 -336 60 -358
90 -18 23 -70 59 -85 58 -5 0 -31 -8 -57 -18z m21 -69 c12 -34 11 -43 -8 -80
-20 -40 -38 -58 -47 -50 -2 3 3 19 12 37 44 89 -62 74 -141 -20 -11 -13 -1 -7
22 13 75 66 133 62 100 -6 -16 -34 -59 -56 -109 -56 -10 0 -18 -4 -18 -10 0
-13 26 -13 50 0 15 8 20 6 25 -11 4 -11 5 -21 3 -23 -1 -1 -19 -13 -38 -27
-66 -48 -110 -42 -110 15 0 31 11 33 28 6 7 -11 20 -20 30 -20 16 1 16 1 0 11
-10 5 -18 19 -18 29 0 13 -5 18 -15 14 -20 -8 -19 5 4 42 25 41 159 160 176
156 7 -1 16 2 20 8 11 19 22 10 34 -28z m601 -106 c0 -8 8 -17 18 -20 10 -4
32 -20 48 -37 24 -25 29 -39 29 -79 0 -33 -6 -55 -17 -66 -24 -25 -38 -8 -38
46 0 40 -4 52 -25 69 -34 26 -72 33 -114 21 -41 -12 -94 -47 -110 -73 -21 -32
-5 -29 31 7 41 41 96 59 139 44 34 -12 49 -35 49 -76 0 -47 -20 -56 -110 -49
-44 4 -80 3 -80 -1 0 -28 67 -43 100 -22 11 6 22 1 42 -23 15 -18 27 -37 28
-44 0 -7 -22 -20 -50 -30 -27 -10 -50 -21 -50 -25 0 -13 -38 -9 -43 5 -3 9 -8
9 -21 -2 -9 -8 -18 -12 -20 -10 -42 45 -76 96 -76 115 0 29 26 32 35 4 11 -34
54 -60 101 -60 23 0 45 4 49 9 3 5 -15 9 -41 8 -39 -2 -49 2 -70 26 -13 15
-24 35 -24 43 0 8 -10 14 -25 14 -49 0 -19 72 55 131 24 19 54 44 67 57 27 25
49 28 57 10 4 -10 9 -8 18 5 16 21 48 23 48 3z m635 -161 c-16 -8 -62 -24
-102 -35 -88 -25 -107 -41 -99 -85 6 -32 6 -33 -41 -44 -59 -14 -244 -33 -251
-26 -3 3 2 13 11 23 9 10 25 38 36 63 l20 45 126 12 c69 7 165 23 213 36 100
27 130 31 87 11z"/>
<path d="M189 23540 l-24 -19 35 9 c19 6 36 10 37 10 2 0 3 5 3 10 0 16 -26
11 -51 -10z"/>
<path d="M804 23410 c-46 -18 -36 -30 25 -30 62 0 77 11 42 30 -23 12 -38 12
-67 0z"/>
</g>
</svg>
